<?xml version="1.0" standalone="no"?><!DOCTYPE svg PUBLIC "-//W3C//DTD SVG 1.1//EN" "http://www.w3.org/Graphics/SVG/1.1/DTD/svg11.dtd"><svg t="1669638762155" class="icon" viewBox="0 0 1024 1024" version="1.1" xmlns="http://www.w3.org/2000/svg" p-id="3254" xmlns:xlink="http://www.w3.org/1999/xlink" width="200" height="200"><path d="M512 960C264.96 960 64 759.04 64 512S264.96 64 512 64s448 200.96 448 448S759.04 960 512 960zM512 128C300.256 128 128 300.256 128 512c0 211.744 172.256 384 384 384 211.744 0 384-172.256 384-384C896 300.256 723.744 128 512 128zM686.208 615.488c-2.784 6.048-6.4 10.496-10.656 13.408-4.512 2.976-8.928 4.8-13.6 5.696-2.336 0.48-4.96 0.672-7.328 0.672-2.592 0-5.12-0.192-7.744-0.512-10.112-1.408-21.984-5.472-35.008-11.808l-3.296 31.488c5.664 3.168 12.704 6.432 21.28 9.984 7.232 3.136 16.32 6.336 27.648 9.792 10.464 3.296 22.464 5.856 36.064 7.904 5.984 0.832 11.616 1.408 16.96 1.408 7.552 0 14.592-1.088 20.448-3.168 9.952-3.552 17.664-8.896 23.872-16.096 5.824-7.232 10.432-15.968 13.728-26.464 3.232-10.24 5.472-21.28 6.656-32.608 1.248-11.328 1.568-22.656 1.248-33.632-0.384-11.328-0.864-21.472-1.248-30.208-0.672-6.176-2.56-19.36-6.016-30.176-3.072-10.144-9.44-20.448-19.2-30.56-9.824-9.984-24.256-19.392-42.944-27.808-18.688-8.64-44.32-14.24-76-16.96-11.2-1.088-25.952-1.6-41.568-1.6s-30.848 0.512-41.824 1.6L544 436.16l0-35.872 3.232-0.16c8.064-0.704 17.472-1.408 27.264-2.048 28-2.048 59.904-4.288 84.768-6.848 33.824-3.456 67.68-7.904 100.32-13.216-1.504-3.136-2.88-6.24-3.872-9.12l-0.672-1.728c-1.376-3.072-2.944-6.656-4.48-10.464-1.184-2.592-2.176-5.312-3.392-8.064-0.672-1.888-1.568-3.936-2.432-6.016-4.064-10.272-8.864-21.6-14.912-36.352-37.408 10.784-74.336 20.256-110.016 27.616-36.384 7.872-74.144 14.208-112.064 19.232-37.952 4.992-76.544 8.416-114.848 10.432-5.12 0.16-10.272 0.416-15.936 0.416-17.152 0-35.36-1.248-53.024-2.432-16.864-0.992-34.176-2.24-51.168-2.4l12.864 50.464c9.984 0 21.088-0.544 32.768-1.056 13.792-0.512 29.536-1.184 46.208-1.312 32.224-0.16 71.232-1.408 109.632-3.456L480 403.552l0 50.976-5.12 0.544c-23.84 5.184-47.296 11.136-66.688 17.28-10.112 3.296-24.032 6.4-35.744 9.12-11.328 2.592-16.384 5.024-22.24 7.232L352 490.048 352 448 256 448l0 224 96 0 0-139.68-4.16-0.704c9.856-4.16 22.528-8.032 37.44-12.032 10.816-2.752 19.68-5.472 27.584-8.064 18.176-6.016 39.84-12 61.28-18.176L480 492.288l0 242.912L474.72 736 544 736l0-253.824 2.944-0.384c5.824-1.184 17.376-1.888 27.136-2.72 5.504-0.352 10.304 1.472 13.216 1.152C594.88 479.552 603.136 480 611.008 480L611.2 480c3.552 0 7.008-2.496 10.464-2.496 16.992 0 30.912 1.504 40.832 6.784 12.192 6.496 20.256 12.832 24.576 20.288 2.208 3.872 3.744 8.256 4.256 13.408 0.576 5.152 0.864 9.28 0.864 12.704 0.352 1.024 0.864 3.04 1.216 9.568 0.832 11.808 0.352 29.824-1.728 53.184C690.816 602.176 689.088 609.504 686.208 615.488z" p-id="3255" fill="#515151"></path></svg>