<svg width="18" height="16" viewBox="0 0 18 16" fill="none" xmlns="http://www.w3.org/2000/svg" class="dm"><path fill-rule="evenodd" clip-rule="evenodd" d="M9 2.0625C6.85812 2.0625 4.98983 2.1725 3.67735 2.2798C2.77861 2.35327 2.08174 3.04067 2.00119 3.93221C1.90388 5.00924 1.8125 6.43727 1.8125 8C1.8125 9.56273 1.90388 10.9908 2.00119 12.0678C2.08174 12.9593 2.77861 13.6467 3.67735 13.7202C4.98983 13.8275 6.85812 13.9375 9 13.9375C11.1421 13.9375 13.0105 13.8275 14.323 13.7202C15.2216 13.6467 15.9184 12.9595 15.9989 12.0682C16.0962 10.9916 16.1875 9.56386 16.1875 8C16.1875 6.43614 16.0962 5.00837 15.9989 3.9318C15.9184 3.04049 15.2216 2.3533 14.323 2.27983C13.0105 2.17252 11.1421 2.0625 9 2.0625ZM3.5755 1.03395C4.9136 0.924562 6.81674 0.8125 9 0.8125C11.1835 0.8125 13.0868 0.924583 14.4249 1.03398C15.9228 1.15645 17.108 2.31588 17.2438 3.81931C17.3435 4.92296 17.4375 6.38948 17.4375 8C17.4375 9.61052 17.3435 11.077 17.2438 12.1807C17.108 13.6841 15.9228 14.8436 14.4249 14.966C13.0868 15.0754 11.1835 15.1875 9 15.1875C6.81674 15.1875 4.9136 15.0754 3.5755 14.966C2.07738 14.8436 0.892104 13.6838 0.756256 12.1803C0.656505 11.0762 0.5625 9.60942 0.5625 8C0.5625 6.39058 0.656505 4.92379 0.756257 3.81973C0.892104 2.31616 2.07738 1.15643 3.5755 1.03395ZM4 6.4375C4 6.09232 4.27982 5.8125 4.625 5.8125H4.9375C5.28268 5.8125 5.5625 6.09232 5.5625 6.4375C5.5625 6.78268 5.28268 7.0625 4.9375 7.0625H4.625C4.27982 7.0625 4 6.78268 4 6.4375ZM6.5 6.4375C6.5 6.09232 6.77982 5.8125 7.125 5.8125H12.125C12.4702 5.8125 12.75 6.09232 12.75 6.4375C12.75 6.78268 12.4702 7.0625 12.125 7.0625H7.125C6.77982 7.0625 6.5 6.78268 6.5 6.4375ZM5.875 8.9375C5.52982 8.9375 5.25 9.21732 5.25 9.5625C5.25 9.90768 5.52982 10.1875 5.875 10.1875H6.1875C6.53268 10.1875 6.8125 9.90768 6.8125 9.5625C6.8125 9.21732 6.53268 8.9375 6.1875 8.9375H5.875ZM8.375 8.9375C8.02982 8.9375 7.75 9.21732 7.75 9.5625C7.75 9.90768 8.02982 10.1875 8.375 10.1875H13.375C13.7202 10.1875 14 9.90768 14 9.5625C14 9.21732 13.7202 8.9375 13.375 8.9375H8.375Z" fill="#515151"></path></svg>