<?xml version="1.0" standalone="no"?><!DOCTYPE svg PUBLIC "-//W3C//DTD SVG 1.1//EN" "http://www.w3.org/Graphics/SVG/1.1/DTD/svg11.dtd"><svg t="1669654945822" class="icon" viewBox="0 0 1024 1024" version="1.1" xmlns="http://www.w3.org/2000/svg" p-id="7880" xmlns:xlink="http://www.w3.org/1999/xlink" width="200" height="200"><path d="M806.2 1000.7c-5.7 0-11.5-1.4-16.7-4.1L512 850.7 234.6 996.6c-12.1 6.4-26.8 5.3-37.9-2.7-11.1-8.1-16.6-21.7-14.3-35.2l53-308.9L10.9 430.9C1.1 421.3-2.5 407 1.8 394c4.2-13 15.5-22.5 29.1-24.5L341 324.4l138.7-281c6.1-12.3 18.6-20.1 32.3-20.1s26.2 7.8 32.3 20.1l138.7 281 310.2 45.1c13.6 2 24.8 11.5 29.1 24.5s0.7 27.3-9.1 36.9L788.7 649.7l53 308.9c2.3 13.5-3.2 27.2-14.3 35.2-6.3 4.6-13.8 6.9-21.2 6.9zM512 774c5.8 0 11.5 1.4 16.8 4.1l229.6 120.7-43.9-255.7c-2-11.7 1.9-23.6 10.4-31.9l185.8-181.1L653.9 393c-11.7-1.7-21.9-9.1-27.1-19.7L512 140.6 397.2 373.3c-5.2 10.6-15.4 18-27.1 19.7l-256.7 37.3 185.8 181.1c8.5 8.3 12.4 20.2 10.4 31.9L265.7 899l229.6-120.7c5.2-2.9 10.9-4.3 16.7-4.3z" p-id="7881" fill="#515151"></path></svg>