<?xml version="1.0" standalone="no"?><!DOCTYPE svg PUBLIC "-//W3C//DTD SVG 1.1//EN" "http://www.w3.org/Graphics/SVG/1.1/DTD/svg11.dtd"><svg t="1669655575327" class="icon" viewBox="0 0 1024 1024" version="1.1" xmlns="http://www.w3.org/2000/svg" p-id="12611" xmlns:xlink="http://www.w3.org/1999/xlink" width="200" height="200"><path d="M914.972801 371.98509A401.480176 401.480176 0 0 0 515.22763 0v87.097255a314.03592 314.03592 0 0 1 21.514063 627.377838h-22.555066a314.382921 314.382921 0 0 1-21.861064-627.724839h22.902067V0h-29.148085a401.133175 401.133175 0 0 0 28.107082 801.572348h28.801084A401.827177 401.827177 0 0 0 914.972801 371.98509z" p-id="12612" fill="#515151"></path><path d="M514.880629 275.518807a126.30837 126.30837 0 0 1 125.267367 116.939343 127.696374 127.696374 0 0 1-30.53609 91.261267 125.267367 125.267367 0 0 1-86.056252 43.028126h-9.022026A125.614368 125.614368 0 0 1 391.001266 410.155202a125.961369 125.961369 0 0 1 116.592342-134.289394h9.022026v-72.870213h-14.227042a198.13758 198.13758 0 0 0 13.880041 395.92816H529.801673a198.13758 198.13758 0 0 0-13.880041-395.92816zM167.532611 911.918672a8.328024 8.328024 0 0 0 10.757032 11.104032l140.882413-55.867164a8.328024 8.328024 0 0 1 11.104032 5.552017l43.028126 145.393426a8.328024 8.328024 0 0 0 15.268045 0l85.015249-173.500509a400.092172 400.092172 0 0 1-234.572687-79.810233zM796.298453 737.724161a406.33819 406.33819 0 0 1-221.039647 112.42833l108.958319 160.66147a8.328024 8.328024 0 0 0 14.921044-3.47001l22.208065-149.557438a7.981023 7.981023 0 0 1 10.063029-6.94002l147.475432 34.700101a8.328024 8.328024 0 0 0 9.022027-12.839037z" p-id="12613" fill="#515151"></path></svg>