<?xml version="1.0" standalone="no"?><!DOCTYPE svg PUBLIC "-//W3C//DTD SVG 1.1//EN" "http://www.w3.org/Graphics/SVG/1.1/DTD/svg11.dtd"><svg width="18" height="16" viewBox="0 0 18 16" xmlns="http://www.w3.org/2000/svg"><path fill-rule="evenodd" clip-rule="evenodd" d="M3.67735 2.2798C4.98983 2.1725 6.85812 2.0625 9 2.0625C11.1421 2.0625 13.0105 2.17252 14.323 2.27983C15.2216 2.3533 15.9184 3.04049 15.9989 3.9318C16.0962 5.00837 16.1875 6.43614 16.1875 8C16.1875 9.56386 16.0962 10.9916 15.9989 12.0682C15.9184 12.9595 15.2216 13.6467 14.323 13.7202C13.0105 13.8275 11.1421 13.9375 9 13.9375C6.85812 13.9375 4.98983 13.8275 3.67735 13.7202C2.77861 13.6467 2.08174 12.9593 2.00119 12.0678C1.90388 10.9908 1.8125 9.56273 1.8125 8C1.8125 6.43727 1.90388 5.00924 2.00119 3.93221C2.08174 3.04067 2.77861 2.35327 3.67735 2.2798ZM9 0.8125C6.81674 0.8125 4.9136 0.924562 3.5755 1.03395C2.07738 1.15643 0.892104 2.31616 0.756257 3.81973C0.656505 4.92379 0.5625 6.39058 0.5625 8C0.5625 9.60942 0.656505 11.0762 0.756256 12.1803C0.892104 13.6838 2.07738 14.8436 3.5755 14.966C4.9136 15.0754 6.81674 15.1875 9 15.1875C11.1835 15.1875 13.0868 15.0754 14.4249 14.966C15.9228 14.8436 17.108 13.6841 17.2438 12.1807C17.3435 11.077 17.4375 9.61052 17.4375 8C17.4375 6.38948 17.3435 4.92296 17.2438 3.81931C17.108 2.31588 15.9228 1.15645 14.4249 1.03398C13.0868 0.924583 11.1835 0.8125 9 0.8125ZM11.1876 8.72203C11.7431 8.40128 11.7431 7.59941 11.1876 7.27866L8.06133 5.47373C7.50577 5.15298 6.81133 5.55392 6.81133 6.19542V9.80527C6.81133 10.4468 7.50577 10.8477 8.06133 10.527L11.1876 8.72203Z" fill="#515151"></path></svg>