<?xml version="1.0" standalone="no"?><!DOCTYPE svg PUBLIC "-//W3C//DTD SVG 1.1//EN" "http://www.w3.org/Graphics/SVG/1.1/DTD/svg11.dtd"><svg t="1669655196235" class="icon" viewBox="0 0 1024 1024" version="1.1" xmlns="http://www.w3.org/2000/svg" p-id="8842" xmlns:xlink="http://www.w3.org/1999/xlink" width="200" height="200"><path d="M922.282667 448.128l-243.797334-260.309333a53.845333 53.845333 0 0 0-28.245333-16.085334 51.2 51.2 0 0 0-31.701333 3.584 56.32 56.32 0 0 0-24.576 21.973334c-5.973333 9.813333-9.216 21.333333-9.216 33.066666v130.986667c-110.08 9.258667-215.381333 52.266667-303.701334 124.032-88.32 71.765333-155.989333 169.301333-195.072 281.173333a12.885333 12.885333 0 0 0-0.213333 7.253334 12.032 12.032 0 0 0 3.712 6.101333 10.325333 10.325333 0 0 0 12.757333 0.768c145.792-96.426667 311.850667-151.168 482.517334-159.018667v129.322667c0 11.776 3.2 23.253333 9.216 33.066667 6.016 9.813333 14.592 17.450667 24.576 21.973333 10.026667 4.565333 21.077333 5.802667 31.701333 3.584 10.666667-2.218667 20.48-7.808 28.245333-16.085333l243.797334-260.266667c5.205333-5.589333 9.301333-12.202667 12.117333-19.541333a64.256 64.256 0 0 0 0-46.08 60.373333 60.373333 0 0 0-12.117333-19.498667z" p-id="8843" fill="#515151"></path></svg>